<svg xmlns="http://www.w3.org/2000/svg" width="86" height="24" fill="none"><path fill="#000" d="M10.78 12.23c.76.12 1.45.43 2.07.93.64.5 1.14 1.12 1.5 1.86.38.74.57 1.53.57 2.37 0 1.06-.27 2.02-.81 2.88-.54.84-1.33 1.51-2.37 2.01-1.02.48-2.23.72-3.63.72H.31V2.09h7.5c1.42 0 2.63.24 3.63.72 1 .46 1.75 1.09 2.25 1.89.5.8.75 1.7.75 2.7 0 1.24-.34 2.27-1.02 3.09-.66.8-1.54 1.38-2.64 1.74Zm-7.74-1.11h4.59c1.28 0 2.27-.3 2.97-.9.7-.6 1.05-1.43 1.05-2.49 0-1.06-.35-1.89-1.05-2.49-.7-.6-1.71-.9-3.03-.9H3.04v6.78Zm4.83 9.63c1.36 0 2.42-.32 3.18-.96.76-.64 1.14-1.53 1.14-2.67 0-1.16-.4-2.07-1.2-2.73-.8-.68-1.87-1.02-3.21-1.02H3.04v7.38h4.83ZM21.438 9.23c.48-.94 1.16-1.67 2.04-2.19.9-.52 1.99-.78 3.27-.78v2.82h-.72c-3.06 0-4.59 1.66-4.59 4.98V23h-2.73V6.56h2.73v2.67Zm9.872-5.34c-.52 0-.96-.18-1.32-.54-.36-.36-.54-.8-.54-1.32s.18-.96.54-1.32c.36-.36.8-.54 1.32-.54.5 0 .92.18 1.26.54.36.36.54.8.54 1.32s-.18.96-.54 1.32c-.34.36-.76.54-1.26.54Zm1.32 2.67V23H29.9V6.56h2.73Zm7.983 2.25v9.69c0 .8.17 1.37.51 1.71.34.32.93.48 1.77.48h2.01V23h-2.46c-1.52 0-2.66-.35-3.42-1.05-.76-.7-1.14-1.85-1.14-3.45V8.81h-2.13V6.56h2.13V2.42h2.73v4.14h4.29v2.25h-4.29Z"/><path fill="#939393" d="M50.94.8V23h-2.73V.8h2.73Zm19.653 13.35c0 .52-.03 1.07-.09 1.65h-13.14c.1 1.62.65 2.89 1.65 3.81 1.02.9 2.25 1.35 3.69 1.35 1.18 0 2.16-.27 2.94-.81.8-.56 1.36-1.3 1.68-2.22h2.94c-.44 1.58-1.32 2.87-2.64 3.87-1.32.98-2.96 1.47-4.92 1.47-1.56 0-2.96-.35-4.2-1.05-1.22-.7-2.18-1.69-2.88-2.97-.7-1.3-1.05-2.8-1.05-4.5 0-1.7.34-3.19 1.02-4.47.68-1.28 1.63-2.26 2.85-2.94 1.24-.7 2.66-1.05 4.26-1.05 1.56 0 2.94.34 4.14 1.02 1.2.68 2.12 1.62 2.76 2.82.66 1.18.99 2.52.99 4.02Zm-2.82-.57c0-1.04-.23-1.93-.69-2.67a4.342 4.342 0 0 0-1.89-1.71c-.78-.4-1.65-.6-2.61-.6-1.38 0-2.56.44-3.54 1.32-.96.88-1.51 2.1-1.65 3.66h10.38ZM82.777 23l-3.9-6.12-3.75 6.12h-2.85l5.31-8.16-5.31-8.28h3.09l3.9 6.09 3.72-6.09h2.85l-5.28 8.13 5.31 8.31h-3.09Z"/></svg>